<svg xmlns="http://www.w3.org/2000/svg" width="120" height="120" viewBox="0 0 120 120">
  <defs>
    <linearGradient id="neon" x1="0%" y1="0%" x2="100%" y2="100%">
      <stop offset="0%" stop-color="#43f0ff" stop-opacity="0.5"/>
      <stop offset="100%" stop-color="#7affd7" stop-opacity="0.3"/>
    </linearGradient>
  </defs>
  <rect width="120" height="120" fill="transparent"/>
  <g stroke="url(#neon)" stroke-width="0.8">
    <path d="M0 0 L120 0"/>
    <path d="M0 20 L120 20"/>
    <path d="M0 40 L120 40"/>
    <path d="M0 60 L120 60"/>
    <path d="M0 80 L120 80"/>
    <path d="M0 100 L120 100"/>
    <path d="M0 120 L120 120"/>
    <path d="M0 0 L0 120"/>
    <path d="M20 0 L20 120"/>
    <path d="M40 0 L40 120"/>
    <path d="M60 0 L60 120"/>
    <path d="M80 0 L80 120"/>
    <path d="M100 0 L100 120"/>
    <path d="M120 0 L120 120"/>
  </g>
</svg>
